<svg width="115" height="24" viewBox="0 0 115 24" fill="none" xmlns="http://www.w3.org/2000/svg">
<path d="M6.27412 18.5H2.31389L2.33887 15.5767H6.27412C7.25689 15.5767 8.08558 15.356 8.76019 14.9146C9.4348 14.4648 9.94284 13.811 10.2843 12.9532C10.6341 12.0953 10.809 11.0584 10.809 9.84247V8.95547C10.809 8.02268 10.7091 7.20231 10.5092 6.49439C10.3176 5.78646 10.0303 5.19097 9.64718 4.70791C9.26407 4.22485 8.7935 3.86256 8.23549 3.62103C7.67748 3.37118 7.03618 3.24625 6.31159 3.24625H2.23893V0.310433H6.31159C7.52756 0.310433 8.63943 0.518647 9.64718 0.935075C10.6633 1.34317 11.5419 1.93034 12.2832 2.69656C13.0244 3.46279 13.5949 4.37893 13.9947 5.44499C14.4028 6.50271 14.6068 7.68121 14.6068 8.98046V9.84247C14.6068 11.1334 14.4028 12.3119 13.9947 13.3779C13.5949 14.444 13.0244 15.3601 12.2832 16.1264C11.5503 16.8843 10.6716 17.4714 9.64718 17.8879C8.6311 18.296 7.50674 18.5 6.27412 18.5ZM4.43767 0.310433V18.5H0.689819V0.310433H4.43767ZM24.6136 0.310433V18.5H20.8782V0.310433H24.6136ZM30.2104 0.310433V3.24625H15.3689V0.310433H30.2104ZM39.7549 0.310433H42.9281L47.6004 13.6653L52.2727 0.310433H55.4459L48.8747 18.5H46.3261L39.7549 0.310433ZM38.0434 0.310433H41.2041L41.7788 13.328V18.5H38.0434V0.310433ZM53.9967 0.310433H57.1699V18.5H53.4221V13.328L53.9967 0.310433ZM59.656 11.8788V11.6164C59.656 10.6253 59.7976 9.71337 60.0808 8.88052C60.3639 8.03933 60.7762 7.31058 61.3175 6.69427C61.8589 6.07796 62.5252 5.59907 63.3164 5.2576C64.1076 4.9078 65.0154 4.7329 66.0398 4.7329C67.0642 4.7329 67.9762 4.9078 68.7758 5.2576C69.5753 5.59907 70.2458 6.07796 70.7871 6.69427C71.3368 7.31058 71.7532 8.03933 72.0364 8.88052C72.3196 9.71337 72.4612 10.6253 72.4612 11.6164V11.8788C72.4612 12.8616 72.3196 13.7735 72.0364 14.6147C71.7532 15.4476 71.3368 16.1763 70.7871 16.801C70.2458 17.4173 69.5795 17.8962 68.7883 18.2377C67.997 18.5791 67.0892 18.7499 66.0648 18.7499C65.0404 18.7499 64.1284 18.5791 63.3289 18.2377C62.5377 17.8962 61.8672 17.4173 61.3175 16.801C60.7762 16.1763 60.3639 15.4476 60.0808 14.6147C59.7976 13.7735 59.656 12.8616 59.656 11.8788ZM63.2539 11.6164V11.8788C63.2539 12.4451 63.3039 12.974 63.4038 13.4654C63.5038 13.9568 63.662 14.3899 63.8786 14.7646C64.1034 15.1311 64.3949 15.4184 64.7531 15.6266C65.1112 15.8349 65.5485 15.939 66.0648 15.939C66.5645 15.939 66.9935 15.8349 67.3516 15.6266C67.7097 15.4184 67.997 15.1311 68.2136 14.7646C68.4301 14.3899 68.5884 13.9568 68.6883 13.4654C68.7966 12.974 68.8507 12.4451 68.8507 11.8788V11.6164C68.8507 11.0668 68.7966 10.5504 68.6883 10.0673C68.5884 9.57595 68.426 9.14287 68.2011 8.76808C67.9846 8.38497 67.6972 8.08514 67.3391 7.8686C66.981 7.65206 66.5479 7.54378 66.0398 7.54378C65.5318 7.54378 65.0987 7.65206 64.7406 7.8686C64.3908 8.08514 64.1034 8.38497 63.8786 8.76808C63.662 9.14287 63.5038 9.57595 63.4038 10.0673C63.3039 10.5504 63.2539 11.0668 63.2539 11.6164ZM78.1954 7.8686V18.5H74.5974V4.98275H77.9705L78.1954 7.8686ZM77.6707 11.2666H76.6962C76.6962 10.2672 76.8253 9.36774 77.0835 8.5682C77.3417 7.76033 77.704 7.07322 78.1704 6.50688C78.6368 5.93221 79.1906 5.49496 79.8319 5.19513C80.4816 4.88697 81.2061 4.7329 82.0057 4.7329C82.6386 4.7329 83.2175 4.82451 83.7422 5.00774C84.2669 5.19097 84.7166 5.48247 85.0914 5.88224C85.4745 6.28201 85.766 6.81087 85.9659 7.46883C86.1741 8.12678 86.2782 8.93049 86.2782 9.87994V18.5H82.6553V9.86745C82.6553 9.2678 82.572 8.8014 82.4054 8.46825C82.2389 8.13511 81.9932 7.90191 81.6684 7.76866C81.3519 7.62707 80.9604 7.55628 80.494 7.55628C80.011 7.55628 79.5904 7.65206 79.2323 7.84361C78.8825 8.03517 78.591 8.30168 78.3578 8.64315C78.1329 8.9763 77.9622 9.36774 77.8456 9.81748C77.729 10.2672 77.6707 10.7503 77.6707 11.2666ZM95.2356 18.7499C94.1862 18.7499 93.2451 18.5833 92.4122 18.2501C91.5794 17.9087 90.8714 17.4381 90.2884 16.8385C89.7138 16.2388 89.2723 15.5434 88.9642 14.7521C88.656 13.9526 88.502 13.1031 88.502 12.2036V11.7039C88.502 10.6795 88.6477 9.74252 88.9392 8.89301C89.2307 8.0435 89.6471 7.30642 90.1885 6.68178C90.7382 6.05714 91.4045 5.57824 92.1873 5.2451C92.9702 4.90363 93.853 4.7329 94.8358 4.7329C95.7936 4.7329 96.6431 4.89114 97.3844 5.20762C98.1256 5.52411 98.7461 5.97385 99.2458 6.55685C99.7538 7.13985 100.137 7.83945 100.395 8.65565C100.653 9.46352 100.782 10.363 100.782 11.3541V12.8532H90.0386V10.4546H97.2469V10.1798C97.2469 9.68006 97.1553 9.23448 96.9721 8.84304C96.7972 8.44327 96.5307 8.12678 96.1726 7.89358C95.8144 7.66038 95.3564 7.54378 94.7983 7.54378C94.3236 7.54378 93.9155 7.64789 93.574 7.8561C93.2326 8.06432 92.9536 8.35582 92.737 8.7306C92.5288 9.10539 92.3706 9.5468 92.2623 10.0548C92.1624 10.5546 92.1124 11.1042 92.1124 11.7039V12.2036C92.1124 12.745 92.1873 13.2447 92.3373 13.7028C92.4955 14.1608 92.7162 14.5564 92.9994 14.8896C93.2909 15.2227 93.6407 15.4809 94.0488 15.6641C94.4652 15.8474 94.9358 15.939 95.4605 15.939C96.1101 15.939 96.7139 15.814 97.2719 15.5642C97.8383 15.306 98.3255 14.9187 98.7336 14.4024L100.483 16.3013C100.199 16.7094 99.8121 17.1008 99.3207 17.4756C98.8377 17.8504 98.2547 18.1585 97.5717 18.4001C96.8888 18.6333 96.1101 18.7499 95.2356 18.7499ZM106.667 16.9759L110.252 4.98275H114.112L108.678 20.5363C108.561 20.8778 108.403 21.2443 108.203 21.6357C108.012 22.0271 107.749 22.3978 107.416 22.7476C107.091 23.1057 106.679 23.3972 106.179 23.6221C105.688 23.8469 105.084 23.9594 104.368 23.9594C104.026 23.9594 103.747 23.9385 103.531 23.8969C103.314 23.8553 103.056 23.797 102.756 23.722V21.086C102.848 21.086 102.944 21.086 103.044 21.086C103.144 21.0943 103.239 21.0985 103.331 21.0985C103.806 21.0985 104.193 21.0444 104.493 20.9361C104.793 20.8278 105.034 20.6613 105.217 20.4364C105.401 20.2198 105.546 19.9367 105.655 19.5869L106.667 16.9759ZM105.167 4.98275L108.103 14.7771L108.615 18.5874L106.167 18.8498L101.307 4.98275H105.167Z" fill="#E1E1E6"/>
</svg>
